<svg width="1860" height="1134" viewBox="0 0 1860 1134" fill="none" xmlns="http://www.w3.org/2000/svg">
<path d="M209.776 24.3394H202.776V31.3394C202.776 79.1019 189.959 115.749 165.589 140.463C141.237 165.158 104.331 178.968 54 178.968H47V185.968V214.832V221.832H54C80.1625 221.832 112.284 219.231 141.997 208.532C164.862 200.298 186.496 187.186 202.776 166.667V743.661V750.661H209.776H242.788H249.788V743.661V31.3394V24.3394H242.788H209.776ZM732.35 443.742C762.698 422.447 788.286 392.264 803.988 351.496V357.09C803.988 490.524 781.351 581.148 743.144 638.228C705.259 694.827 651.605 719.136 587.125 719.136C543.232 719.136 505.248 705.198 477.421 680.209C449.62 655.244 431.501 618.844 428.013 573.038L427.52 566.569H421.033H388.021H380.498L381.039 574.073C385.288 632.982 409.259 680.102 446.21 712.46C483.11 744.774 532.528 762 587.125 762C671.302 762 737.798 728.501 782.908 660.42C827.718 592.794 851 491.711 851 357.09C851 248.061 828.942 162.103 785.815 103.228C742.447 44.0257 678.345 13 596.41 13C523.513 13 464.107 38.6432 422.94 81.6497C381.814 124.613 359.357 184.412 359.357 251.943C359.357 318.981 381.83 377.507 422.461 419.31C463.121 461.142 521.483 485.731 592.283 485.731C638.284 485.731 689.803 473.596 732.35 443.742ZM406.369 251.943C406.369 195.154 424.209 146.194 456.584 111.496C488.901 76.8618 536.229 55.864 596.41 55.864C720.882 55.864 786.45 152.078 786.45 240.603C786.45 315.554 759.605 365.843 722.376 397.501C684.943 429.333 636.366 442.867 592.283 442.867C533.624 442.867 487.322 422.624 455.659 389.014C423.943 355.35 406.369 307.689 406.369 251.943Z" fill="#4D3D30" stroke="#4D3D30" stroke-width="14"/>
<path d="M890 392.345H883V399.345V427.191V434.191H890H1289.45C1063.33 627.211 1017.74 918.154 1017.74 1112V1119H1024.74H1057.65H1064.65V1112C1064.65 923.867 1105.73 620.479 1357.07 429.672L1359.83 427.571V424.097V399.345V392.345H1352.83H890ZM1441.79 624.989H1448.79V617.989C1448.79 513.159 1524.22 423.877 1640.3 423.877C1693.01 423.877 1734.32 443.027 1762.48 472.863C1790.71 502.766 1806.09 543.793 1806.09 588.08C1806.09 645.02 1783.07 684.719 1744.95 718.321C1708.46 750.481 1658.52 776.758 1601.59 806.712C1598.34 808.42 1595.07 810.14 1591.78 811.874C1467.03 877.546 1384.39 969.228 1384.39 1112V1119H1391.39H1846H1853V1112V1083.12V1076.12H1846H1433.94C1449.61 943.504 1549.52 887.345 1649.96 832.197L1652.57 830.765C1702.2 803.524 1751.89 776.245 1789.23 739.728C1827.58 702.224 1853 654.907 1853 588.08C1853 525.551 1831.29 473.63 1793.51 437.354C1755.75 401.107 1702.5 381 1640.3 381C1486.71 381 1401.88 498.192 1401.88 617.989V624.989H1408.88H1441.79Z" fill="#4D3D30" stroke="#4D3D30" stroke-width="14"/>
</svg>
