<svg width="845" height="246" viewBox="0 0 845 246" fill="none" xmlns="http://www.w3.org/2000/svg">
<path d="M0 237V15.7401H47.82L109.924 185.94H110.545L172.338 15.7401H220.158V237H184.138V69.2757H183.517L124.829 237H95.3295L36.6413 69.2757H36.0203V237H0ZM295.01 107.029H403.382V138.593H295.01V205.745H421.702V237H258.058V15.7401H418.597V46.995H295.01V107.029ZM599.526 92.5369C595.65 71.1474 581.64 45.3018 542.291 45.3018C496.383 45.3018 478.199 83.6246 478.199 125.512C478.199 167.697 496.383 206.02 542.291 206.02C581.938 206.02 597.141 180.174 599.526 154.329H635C630.23 202.158 597.439 236.322 543.185 236.322C481.777 236.322 443.024 189.681 443.024 125.512C443.024 61.641 481.777 15 543.185 15C597.141 15 629.932 49.1638 635 92.5369H599.526Z" fill="#F4F0EA"/>
<path d="M674 104.835H709.328H809.672V15H845V237H809.672V135.792H709.328V237H674V104.835Z" fill="#F4F0EA"/>
<path d="M674 15V68H709V15H674Z" fill="#F4F0EA"/>
</svg>
