<svg width="40" height="40" viewBox="0 0 40 40" fill="none" xmlns="http://www.w3.org/2000/svg">
<path d="M20.0004 12.5C17.5433 12.5 15.5444 14.2366 15.5444 16.3714C15.5444 18.5061 17.5433 20.2419 20.0004 20.2419C22.4574 20.2419 24.4552 18.5061 24.4552 16.3714C24.4552 14.2366 22.4574 12.5 20.0004 12.5ZM20.0004 14.7683C21.0173 14.7683 21.8443 15.4878 21.8443 16.3714C21.8443 17.2547 21.0173 17.9736 20.0004 17.9736C18.9832 17.9736 18.1554 17.2547 18.1554 16.3714C18.1554 15.4878 18.9832 14.7683 20.0004 14.7683ZM16.3267 20.3736C15.8858 20.3676 15.4523 20.5565 15.2008 20.9047C14.8165 21.4352 15.0006 22.1353 15.6097 22.4689C16.4155 22.9081 17.2898 23.2198 18.1964 23.3994L15.7063 25.5641C15.1965 26.0072 15.197 26.725 15.7068 27.1681C15.9624 27.3893 16.2957 27.5 16.6299 27.5C16.9637 27.5 17.2981 27.3891 17.5529 27.1677L19.9993 25.0409L22.4479 27.1677C22.9573 27.6107 23.7832 27.6107 24.2934 27.1677C24.8034 26.7248 24.8034 26.0063 24.2934 25.5641L21.8022 23.3998C22.7091 23.2202 23.5837 22.9084 24.3889 22.4689C24.9992 22.1353 25.1836 21.4344 24.7994 20.9047C24.4148 20.3741 23.6095 20.2142 22.9987 20.5484C21.1745 21.5455 18.8241 21.5448 17.0004 20.5484C16.7905 20.4336 16.5576 20.3767 16.3267 20.3736Z" fill="#F4F0EA"/>
<rect x="0.5" y="0.5" width="39" height="39" rx="19.5" stroke="#F4F0EA"/>
</svg>
