<svg width="845" height="222" viewBox="0 0 845 222" fill="none" xmlns="http://www.w3.org/2000/svg">
<path d="M173.039 1.74005H219.158V221H185.138V54.2757V53.2757H184.138H183.517H182.807L182.573 53.9454L124.119 221H96.039L37.5852 53.9454L37.3508 53.2757H36.6413H36.0203H35.0203V54.2757V221H1V1.74005H47.1204L108.984 171.283L109.224 171.94H109.924H110.545H111.246L111.485 171.281L173.039 1.74005ZM294.01 92.0291V93.0291H295.01H402.382V122.593H295.01H294.01V123.593V190.745V191.745H295.01H420.702V221H259.058V1.74005H417.597V30.995H295.01H294.01V31.995V92.0291ZM708.328 120.792V221H675V90.835H809.672H810.672V89.835V1H844V221H810.672V120.792V119.792H809.672H709.328H708.328V120.792ZM600.356 76.5369C598.318 65.9347 593.786 54.2873 584.927 45.2002C575.814 35.8526 562.206 29.3018 542.291 29.3018C519.013 29.3018 502.681 39.0404 492.208 54.129C481.769 69.169 477.199 89.4455 477.199 110.512C477.199 131.727 481.768 152.077 492.208 167.155C502.681 182.281 519.012 192.02 542.291 192.02C562.35 192.02 576.342 185.472 585.612 175.549C594.647 165.879 599.106 153.101 600.432 140.329H633.89C631.351 163.568 622.1 183.423 606.967 197.53C591.601 211.854 570.094 220.322 543.185 220.322C512.751 220.322 487.99 208.773 470.826 189.319C453.651 169.852 444.024 142.399 444.024 110.512C444.024 78.7751 453.651 51.3966 470.825 31.9667C487.99 12.549 512.751 1 543.185 1C569.944 1 591.385 9.46741 606.758 23.2481C621.868 36.7934 631.172 55.5216 633.87 76.5369H600.356ZM708 52H675V1H708V52Z" stroke="#4D3D30" stroke-width="2"/>
</svg>
