<svg width="40" height="40" viewBox="0 0 40 40" fill="none" xmlns="http://www.w3.org/2000/svg">
<path fill-rule="evenodd" clip-rule="evenodd" d="M26.6147 16.0558C27.2926 15.6496 27.8139 15.0061 28.0585 14.2394C27.4242 14.6155 26.7215 14.889 25.9743 15.0362C25.3752 14.3979 24.5223 14 23.5781 14C21.7644 14 20.2948 15.4693 20.2948 17.2816C20.2948 17.5386 20.3238 17.7893 20.3798 18.0297C17.652 17.893 15.233 16.5863 13.6141 14.601C13.3322 15.0849 13.1695 15.6486 13.1695 16.2506C13.1695 17.3894 13.7489 18.3934 14.6298 18.982C14.0919 18.9654 13.5862 18.8172 13.1436 18.5717C13.1426 18.5851 13.1426 18.5986 13.1426 18.6131C13.1426 20.2026 14.2743 21.53 15.7761 21.8305C15.5004 21.9061 15.2102 21.9465 14.9117 21.9465C14.6992 21.9465 14.494 21.9258 14.294 21.8875C14.7117 23.191 15.9232 24.1401 17.3597 24.166C16.2362 25.0468 14.8215 25.5711 13.2835 25.5711C13.0182 25.5711 12.757 25.5556 12.5 25.5255C13.953 26.456 15.6787 27 17.5328 27C23.5698 27 26.8718 21.9994 26.8718 17.6619C26.8718 17.5199 26.8687 17.378 26.8625 17.237C27.504 16.7749 28.0606 16.1967 28.5 15.5387C27.9113 15.7999 27.2791 15.976 26.6147 16.0558Z" fill="#F4F0EA"/>
<rect x="0.5" y="0.5" width="39" height="39" rx="19.5" stroke="#F4F0EA"/>
</svg>
