<svg width="40" height="40" viewBox="0 0 40 40" fill="none" xmlns="http://www.w3.org/2000/svg">
<path d="M27.6331 16.6095C27.7449 16.2579 27.6331 16 27.1046 16H25.3535C24.908 16 24.7044 16.2231 24.5926 16.4681C24.5926 16.4681 23.7023 18.5241 22.4408 19.8572C22.0335 20.2452 21.8474 20.3677 21.6255 20.3677C21.5145 20.3677 21.3532 20.2452 21.3532 19.8935V16.6095C21.3532 16.1875 21.2247 16 20.8534 16H18.1019C17.824 16 17.6563 16.1951 17.6563 16.3811C17.6563 16.7804 18.2871 16.8726 18.3518 17.9978V20.4387C18.3518 20.9734 18.2504 21.0709 18.0268 21.0709C17.4336 21.0709 15.9899 19.0073 15.1332 16.645C14.9663 16.186 14.7978 16.0008 14.3507 16.0008H12.6005C12.0998 16.0008 12 16.2238 12 16.4688C12 16.9089 12.5933 19.0867 14.7635 21.967C16.2103 23.9338 18.2472 25 20.1028 25C21.2151 25 21.3524 24.7633 21.3524 24.355V22.8683C21.3524 22.395 21.4586 22.2997 21.8107 22.2997C22.0695 22.2997 22.515 22.4237 23.5538 23.3712C24.7403 24.4949 24.9368 24.9992 25.6035 24.9992H27.3537C27.8536 24.9992 28.1034 24.7626 27.9597 24.2952C27.8025 23.8302 27.2355 23.1534 26.4834 22.3526C26.0745 21.8959 25.4637 21.4044 25.2777 21.1586C25.0182 20.8418 25.0933 20.7019 25.2777 20.4206C25.2777 20.4206 27.4112 17.5766 27.6331 16.6095Z" fill="#F4F0EA"/>
<rect x="0.5" y="0.5" width="39" height="39" rx="19.5" stroke="#F4F0EA"/>
</svg>
