<svg width="40" height="40" viewBox="0 0 40 40" fill="none" xmlns="http://www.w3.org/2000/svg">
<path fill-rule="evenodd" clip-rule="evenodd" d="M27.9341 14.3976C28.7479 14.6118 29.3896 15.2388 29.6086 16.0341C30.0156 17.4871 29.9999 20.5153 29.9999 20.5153C29.9999 20.5153 29.9999 23.5283 29.6086 24.9812C29.3896 25.7766 28.7479 26.4036 27.9341 26.6178C26.4472 27 20.5 27 20.5 27C20.5 27 14.5683 27 13.0659 26.6024C12.252 26.3883 11.6104 25.7612 11.3913 24.966C11 23.5283 11 20.5 11 20.5C11 20.5 11 17.4871 11.3913 16.0341C11.6104 15.2388 12.2677 14.5965 13.0659 14.3824C14.5527 14 20.5 14 20.5 14C20.5 14 26.4472 14 27.9341 14.3976ZM23.5522 20.4994L18.6065 23.2829V17.7158L23.5522 20.4994Z" fill="#F4F0EA"/>
<rect x="0.5" y="0.5" width="39" height="39" rx="19.5" stroke="#F4F0EA"/>
</svg>
