 <svg viewBox="0 0 94 25" fill="none" xmlns="http://www.w3.org/2000/svg">
                            <path fill="#4d3d30" fill-rule="evenodd" clip-rule="evenodd"
                                d="M0.392578 25V0.0833378H5.75922L12.7289 19.25H12.7986L19.7335 0.0833378H25.1002V25H21.0577V6.11212H20.988L14.4017 25H11.0911L4.5047 6.11212H4.435V25H0.392578ZM33.5005 10.3636H45.6626V13.9182H33.5005V21.4803H47.7187V25H29.3535V0.0833378H47.3702V3.60303H33.5005V10.3636ZM67.6752 8.73163C67.2402 6.32291 65.6678 3.41236 61.2519 3.41236C56.0999 3.41236 54.0591 7.72799 54.0591 12.4451C54.0591 17.1956 56.0999 21.5113 61.2519 21.5113C65.7013 21.5113 67.4075 18.6007 67.6752 15.6902H71.6563C71.121 21.0764 67.441 24.9236 61.3522 24.9236C54.4606 24.9236 50.1115 19.6713 50.1115 12.4451C50.1115 5.25236 54.4606 0 61.3522 0C67.4075 0 71.0876 3.84727 71.6563 8.73163H67.6752ZM73.8213 10.6758H77.788H89.0547V0.675776H93.0212V24.8312H89.0547V14.1217H77.788V24.8312H73.8213V10.6758ZM73.8564 8.28369V0.513422H77.8231V8.28369H73.8564Z" />
                        </svg>